<?xml version="1.0" encoding="UTF-8"?>
<!DOCTYPE svg PUBLIC "-//W3C//DTD SVG 1.1//EN" "http://www.w3.org/Graphics/SVG/1.1/DTD/svg11.dtd">
<svg xmlns="http://www.w3.org/2000/svg" version="1.1" width="512px" height="512px" style="shape-rendering:geometricPrecision; text-rendering:geometricPrecision; image-rendering:optimizeQuality; fill-rule:evenodd; clip-rule:evenodd" xmlns:xlink="http://www.w3.org/1999/xlink">
<g><path style="opacity:0.943" fill="#000000" d="M 154.5,62.5 C 221.834,62.3333 289.167,62.5 356.5,63C 376.801,67.9893 384.968,80.8227 381,101.5C 377.506,112.005 370.339,118.505 359.5,121C 337.169,121.5 314.836,121.667 292.5,121.5C 292.5,131.833 292.5,142.167 292.5,152.5C 298.842,152.334 305.175,152.5 311.5,153C 313.286,153.785 314.786,154.951 316,156.5C 317.283,175.448 317.949,194.448 318,213.5C 335.74,223.906 350.24,237.739 361.5,255C 377.163,255.5 392.83,255.667 408.5,255.5C 405.779,239.473 410.779,226.64 423.5,217C 442.378,209.07 456.878,213.904 467,231.5C 467.92,234.101 468.587,236.768 469,239.5C 469.667,295.167 469.667,350.833 469,406.5C 463.653,426.424 450.82,434.59 430.5,431C 420.756,427.59 413.923,421.09 410,411.5C 408.7,404.229 408.2,396.896 408.5,389.5C 392.83,389.333 377.163,389.5 361.5,390C 326.255,439.422 278.921,457.089 219.5,443C 189.897,433.54 166.564,415.874 149.5,390C 133.837,389.5 118.17,389.333 102.5,389.5C 105.202,404.563 100.868,417.063 89.5,427C 73.3794,435.563 59.2127,433.063 47,419.5C 44.5452,415.469 42.8786,411.136 42,406.5C 41.3333,350.5 41.3333,294.5 42,238.5C 47.2566,219.445 59.7566,211.278 79.5,214C 91.8513,217.686 99.3513,225.852 102,238.5C 102.499,244.157 102.666,249.824 102.5,255.5C 118.17,255.667 133.837,255.5 149.5,255C 160.76,237.739 175.26,223.906 193,213.5C 193.051,194.448 193.717,175.448 195,156.5C 196.214,154.951 197.714,153.785 199.5,153C 205.825,152.5 212.158,152.334 218.5,152.5C 218.5,142.167 218.5,131.833 218.5,121.5C 196.164,121.667 173.831,121.5 151.5,121C 132.459,114.588 125.459,101.588 130.5,82C 134.929,70.9698 142.929,64.4698 154.5,62.5 Z M 157.5,80.5 C 222.834,80.3333 288.168,80.5 353.5,81C 363.204,83.5736 366.037,89.4069 362,98.5C 360.457,100.378 358.624,101.878 356.5,103C 289.167,103.667 221.833,103.667 154.5,103C 146.831,98.9939 144.998,93.1606 149,85.5C 151.398,82.8916 154.231,81.2249 157.5,80.5 Z M 236.5,121.5 C 249.167,121.5 261.833,121.5 274.5,121.5C 274.5,131.833 274.5,142.167 274.5,152.5C 261.833,152.5 249.167,152.5 236.5,152.5C 236.5,142.167 236.5,131.833 236.5,121.5 Z M 212.5,170.5 C 241.167,170.5 269.833,170.5 298.5,170.5C 298.832,181.853 298.499,193.186 297.5,204.5C 269.5,195.167 241.5,195.167 213.5,204.5C 212.501,193.186 212.168,181.853 212.5,170.5 Z M 242.5,215.5 C 289.922,212.457 325.755,231.123 350,271.5C 373.22,322.733 364.387,367.566 323.5,406C 278.167,438.667 232.833,438.667 187.5,406C 146.613,367.566 137.78,322.733 161,271.5C 179.568,240.301 206.734,221.634 242.5,215.5 Z M 68.5,231.5 C 76.4189,230.703 81.5856,234.036 84,241.5C 84.6667,295.833 84.6667,350.167 84,404.5C 80.2217,413.309 74.055,415.809 65.5,412C 62.8941,410.062 61.0608,407.562 60,404.5C 59.3333,350.167 59.3333,295.833 60,241.5C 61.2613,236.745 64.0947,233.412 68.5,231.5 Z M 435.5,231.5 C 443.419,230.703 448.586,234.036 451,241.5C 451.667,295.5 451.667,349.5 451,403.5C 447.698,413.073 441.531,415.907 432.5,412C 429.894,410.062 428.061,407.562 427,404.5C 426.333,350.167 426.333,295.833 427,241.5C 428.261,236.745 431.095,233.412 435.5,231.5 Z M 102.5,273.5 C 114.851,273.168 127.185,273.501 139.5,274.5C 126.631,306.605 126.631,338.605 139.5,370.5C 127.185,371.499 114.851,371.832 102.5,371.5C 102.5,338.833 102.5,306.167 102.5,273.5 Z M 371.5,273.5 C 383.833,273.5 396.167,273.5 408.5,273.5C 408.5,306.167 408.5,338.833 408.5,371.5C 396.149,371.832 383.815,371.499 371.5,370.5C 384.751,338.172 384.751,305.839 371.5,273.5 Z M 251.5,301.5 C 268.311,301.477 276.477,309.81 276,326.5C 270.116,342.688 259.282,347.188 243.5,340C 231.867,328.98 231.534,317.647 242.5,306C 245.437,304.199 248.437,302.699 251.5,301.5 Z"/></g>
<g><path style="opacity:0.884" fill="#000000" d="M 252.5,233.5 C 261.323,232.822 265.157,236.822 264,245.5C 261.647,250.426 257.814,252.26 252.5,251C 244.555,245.17 244.555,239.336 252.5,233.5 Z"/></g>
<g><path style="opacity:0.887" fill="#000000" d="M 194.5,257.5 C 204.105,255.939 208.271,259.939 207,269.5C 206.215,271.286 205.049,272.786 203.5,274C 195.715,276.448 191.048,273.781 189.5,266C 190.05,262.385 191.716,259.552 194.5,257.5 Z"/></g>
<g><path style="opacity:0.886" fill="#000000" d="M 307.5,257.5 C 319.053,255.992 323.053,260.659 319.5,271.5C 314.632,275.47 309.798,275.47 305,271.5C 302.418,266.12 303.251,261.453 307.5,257.5 Z"/></g>
<g><path style="opacity:0.934" fill="#000000" d="M 249.5,283.5 C 280.131,283.63 294.964,298.963 294,329.5C 287.437,353.046 271.937,363.546 247.5,361C 224.993,354.164 214.827,338.997 217,315.5C 221.104,297.896 231.937,287.229 249.5,283.5 Z M 251.5,301.5 C 248.437,302.699 245.437,304.199 242.5,306C 231.534,317.647 231.867,328.98 243.5,340C 259.282,347.188 270.116,342.688 276,326.5C 276.477,309.81 268.311,301.477 251.5,301.5 Z"/></g>
<g><path style="opacity:0.867" fill="#000000" d="M 172.5,313.5 C 181.006,313.17 184.839,317.17 184,325.5C 181.549,331.089 177.383,332.922 171.5,331C 166.845,328.103 165.345,323.937 167,318.5C 168.73,316.598 170.563,314.931 172.5,313.5 Z"/></g>
<g><path style="opacity:0.866" fill="#000000" d="M 333.5,313.5 C 342.034,313.861 345.534,318.194 344,326.5C 341.103,331.155 336.937,332.655 331.5,331C 324.403,324.11 325.069,318.277 333.5,313.5 Z"/></g>
<g><path style="opacity:0.869" fill="#000000" d="M 195.5,370.5 C 205.157,369.658 208.99,373.991 207,383.5C 202.015,389.665 196.682,389.998 191,384.5C 188.606,378.517 190.106,373.851 195.5,370.5 Z"/></g>
<g><path style="opacity:0.863" fill="#000000" d="M 308.5,370.5 C 318.859,370.014 322.692,374.681 320,384.5C 314.272,389.988 308.938,389.654 304,383.5C 302.379,377.923 303.879,373.589 308.5,370.5 Z"/></g>
<g><path style="opacity:0.867" fill="#000000" d="M 254.5,393.5 C 262.457,394.294 265.623,398.628 264,406.5C 261.103,411.155 256.937,412.655 251.5,411C 246.391,407.634 245.224,403.134 248,397.5C 249.792,395.372 251.958,394.039 254.5,393.5 Z"/></g>
</svg>
